HIERARCHY
ROOT Hips
{
	OFFSET -13.091600 -28.302996 44.698402
	CHANNELS 6 Xposition Yposition Zposition Zrotation Xrotation Yrotation
	JOINT Chest
	{
		OFFSET -0.673000 0.623899 5.369202
		CHANNELS 6 Xposition Yposition Zposition Zrotation Xrotation Yrotation
		JOINT Chest2
		{
			OFFSET 0.000000 0.000000 4.415001
			CHANNELS 6 Xposition Yposition Zposition Zrotation Xrotation Yrotation
			JOINT Neck
			{
				OFFSET 0.000000 0.000002 10.273300
				CHANNELS 6 Xposition Yposition Zposition Zrotation Xrotation Yrotation
				JOINT Head
				{
					OFFSET 0.000000 0.000000 2.173897
					CHANNELS 6 Xposition Yposition Zposition Zrotation Xrotation Yrotation
					End Site
					{
						OFFSET 0.000000 0.000000 9.961800
					}
				}
			}
			JOINT LeftCollar
			{
				OFFSET 2.359900 -0.565201 5.928101
				CHANNELS 6 Xposition Yposition Zposition Zrotation Xrotation Yrotation
				JOINT LeftShoulder
				{
					OFFSET 5.443700 0.000000 0.000000
					CHANNELS 6 Xposition Yposition Zposition Zrotation Xrotation Yrotation
					JOINT LeftElbow
					{
						OFFSET 0.000000 0.000000 -10.615799
						CHANNELS 6 Xposition Yposition Zposition Zrotation Xrotation Yrotation
						JOINT LeftWrist
						{
							OFFSET 0.000000 -0.000002 -13.110302
							CHANNELS 6 Xposition Yposition Zposition Zrotation Xrotation Yrotation
							End Site
							{
								OFFSET 0.000000 0.000000 -2.173901
							}
						}
					}
				}
			}
			JOINT RightCollar
			{
				OFFSET -2.636600 -1.718800 6.889698
				CHANNELS 6 Xposition Yposition Zposition Zrotation Xrotation Yrotation
				JOINT RightShoulder
				{
					OFFSET -4.139101 0.000000 0.000000
					CHANNELS 6 Xposition Yposition Zposition Zrotation Xrotation Yrotation
					JOINT RightElbow
					{
						OFFSET 0.000000 0.000000 -10.471802
						CHANNELS 6 Xposition Yposition Zposition Zrotation Xrotation Yrotation
						JOINT RightWrist
						{
							OFFSET 0.000000 0.000000 -12.281898
							CHANNELS 6 Xposition Yposition Zposition Zrotation Xrotation Yrotation
							End Site
							{
								OFFSET 0.000000 -0.000002 -2.173901
							}
						}
					}
				}
			}
		}
	}
	JOINT LeftHip
	{
		OFFSET 2.273400 0.176701 -2.518002
		CHANNELS 6 Xposition Yposition Zposition Zrotation Xrotation Yrotation
		JOINT LeftKnee
		{
			OFFSET 0.000000 -0.000002 -20.456402
			CHANNELS 6 Xposition Yposition Zposition Zrotation Xrotation Yrotation
			JOINT LeftAnkle
			{
				OFFSET 0.000000 -0.000002 -16.635300
				CHANNELS 6 Xposition Yposition Zposition Zrotation Xrotation Yrotation
				End Site
				{
					OFFSET 0.000000 -8.812399 0.000001
				}
			}
		}
	}
	JOINT RightHip
	{
		OFFSET -1.914800 0.018101 -2.699299
		CHANNELS 6 Xposition Yposition Zposition Zrotation Xrotation Yrotation
		JOINT RightKnee
		{
			OFFSET 0.000000 -0.000002 -20.148901
			CHANNELS 6 Xposition Yposition Zposition Zrotation Xrotation Yrotation
			JOINT RightAnkle
			{
				OFFSET 0.000000 -0.000002 -16.838301
				CHANNELS 6 Xposition Yposition Zposition Zrotation Xrotation Yrotation
				End Site
				{
					OFFSET 0.000000 -8.328398 0.000001
				}
			}
		}
	}
}
MOTION
Frames: 10
Frame Time: 0.041667
-12.989300 19.424906 42.287205 3508.094441 46.494201 80.752999 -0.673003 0.623908 5.369209 13.843619 -13.601655 -9.391101 0.000002 0.000001 4.415007 -3.812898 -2.031157 -0.081753 -0.000005 0.000007 10.273302 65.047949 -28.692296 13.509928 0.000001 -0.000008 2.173897 3.850222 -8.495160 6.738534 2.359893 -0.565197 5.928096 4.791879 4.393249 0.386333 5.443699 -0.000004 -0.000003 4.908560 381.864566 -79.316576 0.000002 0.000004 -10.615797 587.457139 -143.504569 193.682090 -0.000001 -0.000007 -13.110300 -1953.570706 190.814954 -605.053892 -2.636609 -1.718799 6.889700 179.684163 -182.272955 179.676978 -4.139094 0.000001 0.000003 -186.509175 -157.838637 270.792330 -0.000004 0.000000 -10.471800 -31.317971 -32.988222 -395.787988 -0.000001 0.000003 -12.281895 1.025977 7.406898 60.327407 2.273398 0.176709 -2.518003 -405.029589 -151.296927 -73.192389 -0.000001 -0.000006 -20.456392 896.715155 166.102742 -207.410988 0.000002 -0.000004 -16.635298 -437.605357 32.397373 18.202329 -1.914793 0.018106 -2.699295 323.420795 159.549121 118.603790 0.000003 -0.000000 -20.148909 -955.050489 -150.565674 107.428002 -0.000011 -0.000003 -16.838303 960.761292 -3.096671 -46.474619
-12.966501 19.437613 42.266106 3507.989092 46.513435 80.908666 -0.673006 0.623902 5.369200 13.953512 -13.699869 -9.361380 -0.000001 -0.000000 4.415000 -3.801078 -1.993378 -0.077021 0.000004 0.000002 10.273300 64.942648 -28.877978 13.484100 -0.000001 -0.000004 2.173891 3.786000 -8.579589 6.809227 2.359904 -0.565205 5.928099 4.722721 4.421007 0.215987 5.443694 0.000007 0.000000 4.972488 381.881532 -79.236642 0.000001 0.000006 -10.615796 587.515059 -143.388729 193.667296 -0.000003 -0.000007 -13.110300 -1953.479564 190.827549 -605.212462 -2.636595 -1.718805 6.889703 179.859590 -182.280359 179.598499 -4.139099 0.000004 -0.000001 -186.869358 -157.920175 270.769299 -0.000005 -0.000004 -10.471796 -31.495792 -33.051347 -395.937269 -0.000001 -0.000003 -12.281900 1.064640 7.478392 60.340972 2.273396 0.176698 -2.518004 -404.970659 -151.307705 -72.961645 0.000002 -0.000001 -20.456396 896.243544 165.711741 -207.426179 0.000004 -0.000001 -16.635296 -436.703827 32.393702 17.704921 -1.914799 0.018097 -2.699298 323.373640 159.299122 118.693183 0.000002 -0.000003 -20.148905 -954.306053 -150.242114 107.953756 0.000004 -0.000000 -16.838305 960.648403 -3.059677 -46.848947
-12.945701 19.446604 42.244907 3508.002643 46.620935 80.982630 -0.672999 0.623899 5.369207 13.920769 -13.713032 -9.416431 0.000001 0.000004 4.414999 -3.778433 -2.000375 -0.078498 -0.000007 0.000000 10.273300 64.885889 -28.979946 13.490095 -0.000000 -0.000005 2.173892 3.876930 -8.503827 6.693212 2.359891 -0.565198 5.928099 5.199099 4.206676 0.000420 5.443698 -0.000006 -0.000002 4.527673 382.147090 -79.126423 0.000002 -0.000001 -10.615793 587.897331 -143.313406 193.861874 -0.000001 -0.000011 -13.110301 -1953.655729 190.782920 -605.313221 -2.636612 -1.718798 6.889702 179.970198 -182.262751 179.509556 -4.139102 0.000000 0.000002 -187.037545 -158.330861 270.770774 -0.000009 -0.000001 -10.471797 -31.791891 -33.099175 -395.821511 0.000002 0.000001 -12.281893 1.148324 7.439282 60.404602 2.273397 0.176697 -2.518003 -405.027622 -151.241220 -72.792871 0.000000 -0.000005 -20.456394 895.938644 165.419395 -207.443172 0.000003 -0.000002 -16.635298 -436.000754 32.434342 17.219981 -1.914793 0.018097 -2.699300 323.216709 159.121128 118.772468 0.000009 0.000002 -20.148899 -953.707401 -150.110496 108.445864 -0.000004 0.000001 -16.838305 960.498139 -2.938528 -46.883074
-12.929897 19.454008 42.225800 3507.982098 46.717555 81.090656 -0.672999 0.623903 5.369209 13.878856 -13.683287 -9.416795 -0.000001 -0.000002 4.415000 -3.747517 -2.051175 -0.084348 0.000002 0.000008 10.273303 64.897199 -29.207446 13.527824 0.000000 -0.000001 2.173889 3.849210 -8.432251 6.678948 2.359902 -0.565196 5.928101 5.260803 4.008140 -0.046482 5.443697 -0.000002 -0.000003 4.615082 382.322434 -79.284925 0.000000 -0.000002 -10.615793 588.187696 -143.305387 194.023640 -0.000003 -0.000004 -13.110297 -1953.899430 190.721763 -605.677516 -2.636602 -1.718793 6.889701 179.803405 -182.139193 179.194507 -4.139101 -0.000000 0.000000 -186.803898 -158.654872 270.981854 -0.000010 0.000000 -10.471796 -31.834187 -33.165343 -395.557374 -0.000005 0.000001 -12.281897 1.027535 7.467967 60.277792 2.273401 0.176701 -2.518001 -405.044971 -151.184830 -72.611878 -0.000003 -0.000003 -20.456394 895.960064 165.338676 -207.479987 0.000003 -0.000001 -16.635298 -435.888411 32.462441 17.139246 -1.914799 0.018100 -2.699293 323.111634 158.987761 118.883773 0.000005 0.000000 -20.148903 -953.016623 -149.787988 108.926341 -0.000008 -0.000003 -16.838301 960.344705 -2.976367 -47.238596
-12.919998 19.457502 42.210999 3507.974885 46.797529 81.115743 -0.673002 0.623894 5.369208 13.968252 -13.675194 -9.385334 0.000001 0.000001 4.415006 -3.721191 -2.093371 -0.086952 0.000001 0.000005 10.273309 64.835837 -29.265274 13.623686 0.000003 -0.000009 2.173902 3.884563 -8.437030 6.558522 2.359897 -0.565196 5.928104 5.174338 4.058292 0.094242 5.443700 -0.000004 -0.000004 4.707905 382.136325 -79.605206 0.000000 0.000008 -10.615803 588.540243 -143.568036 194.262574 -0.000003 -0.000010 -13.110300 -1954.311427 190.673951 -605.659429 -2.636604 -1.718800 6.889708 179.929094 -182.092666 178.037500 -4.139091 -0.000002 -0.000004 -186.652910 -158.912342 272.180306 -0.000007 0.000003 -10.471805 -32.113698 -33.144787 -395.532430 -0.000001 -0.000008 -12.281908 0.975936 7.456372 60.400695 2.273397 0.176703 -2.518003 -405.082974 -151.209583 -72.533932 -0.000001 -0.000005 -20.456396 896.344740 165.526233 -207.533604 0.000001 -0.000002 -16.635294 -436.459224 32.537184 17.386429 -1.914803 0.018098 -2.699298 323.176329 158.993895 118.860974 -0.000001 -0.000000 -20.148899 -953.265569 -150.481061 108.981139 0.000004 -0.000004 -16.838299 960.963138 -2.977450 -46.913663
-12.913500 19.456808 42.198307 3508.001332 46.841724 81.111201 -0.672997 0.623890 5.369210 13.930532 -13.621616 -9.392057 0.000002 -0.000000 4.415009 -3.585715 -2.126157 -0.091249 -0.000003 0.000010 10.273310 64.720660 -29.299415 13.758633 -0.000001 -0.000004 2.173893 3.973207 -8.499447 6.546230 2.359898 -0.565201 5.928105 5.114693 3.956951 0.200817 5.443696 -0.000008 0.000001 4.910125 382.118949 -79.861864 0.000001 -0.000006 -10.615799 588.380799 -143.596203 194.223655 -0.000005 -0.000003 -13.110306 -1954.289789 190.658119 -605.764232 -2.636606 -1.718802 6.889706 179.586437 -182.120506 179.013753 -4.139100 0.000002 0.000003 -186.722332 -159.198281 271.077122 0.000001 -0.000004 -10.471796 -32.196986 -33.107795 -395.420415 -0.000003 -0.000001 -12.281904 0.860258 7.489507 60.363142 2.273400 0.176698 -2.518003 -405.124474 -151.269074 -72.515292 0.000000 -0.000005 -20.456396 896.569207 165.650461 -207.553193 0.000004 -0.000002 -16.635296 -436.854501 32.607296 17.526154 -1.914793 0.018092 -2.699299 323.220807 159.027240 118.829787 0.000000 -0.000001 -20.148905 -952.858709 -150.094445 109.532807 0.000003 -0.000001 -16.838301 960.484478 -2.917503 -47.011089
-12.907099 19.453207 42.189304 3508.030619 46.891769 81.082043 -0.673009 0.623906 5.369210 13.975873 -13.547697 -9.251017 0.000002 0.000002 4.415003 -3.596687 -2.172865 -0.094294 0.000004 -0.000001 10.273301 64.695914 -29.469572 13.833165 -0.000002 -0.000002 2.173897 4.090882 -8.394404 6.491405 2.359907 -0.565205 5.928098 5.154000 3.956525 0.177519 5.443698 0.000004 -0.000005 4.938680 382.053844 -80.105422 0.000001 0.000006 -10.615801 588.251518 -143.824564 194.138155 -0.000001 -0.000007 -13.110300 -1954.279298 190.567865 -605.807399 -2.636596 -1.718809 6.889701 179.556002 -182.026413 177.844671 -4.139100 -0.000002 0.000000 -186.217772 -159.179813 272.201890 -0.000007 0.000001 -10.471798 -32.087535 -33.005243 -395.309984 0.000003 0.000000 -12.281899 0.833939 7.466881 60.339216 2.273393 0.176710 -2.518003 -405.203459 -151.332922 -72.531917 -0.000001 -0.000007 -20.456396 896.419162 165.549251 -207.525394 0.000001 -0.000002 -16.635298 -436.623340 32.655428 17.348964 -1.914801 0.018101 -2.699298 323.239112 158.979592 118.806920 0.000002 0.000001 -20.148903 -952.821006 -150.308039 109.741175 -0.000001 0.000001 -16.838303 960.726322 -2.933704 -46.844661
-12.899497 19.452002 42.178802 3508.050509 46.928621 81.102274 -0.673000 0.623898 5.369206 14.018579 -13.499474 -9.210693 0.000001 0.000004 4.415006 -3.573077 -2.210655 -0.096955 0.000002 0.000002 10.273299 64.393357 -29.597050 13.907835 -0.000002 -0.000001 2.173903 4.299978 -8.401480 6.431418 2.359901 -0.565206 5.928102 5.132635 3.968782 0.243186 5.443696 -0.000000 -0.000002 4.981837 381.943468 -80.365112 -0.000000 0.000006 -10.615800 588.167370 -144.123371 194.067818 -0.000003 -0.000010 -13.110304 -1954.353829 190.514221 -605.726966 -2.636602 -1.718801 6.889703 179.311809 -181.945298 177.703491 -4.139097 -0.000004 0.000000 -185.881153 -159.217857 272.287513 -0.000007 -0.000004 -10.471805 -31.934164 -32.894126 -395.156688 -0.000008 -0.000001 -12.281893 0.874511 7.422294 60.234632 2.273403 0.176700 -2.518003 -405.175154 -151.402905 -72.459640 -0.000001 -0.000002 -20.456398 898.760660 167.032044 -207.795842 0.000002 -0.000003 -16.635298 -440.611733 32.827846 19.380332 -1.914788 0.018102 -2.699299 323.192011 158.928748 118.852887 0.000005 -0.000002 -20.148907 -953.145686 -151.202220 109.738156 -0.000001 -0.000001 -16.838299 961.544087 -2.933404 -46.337226
-12.894299 19.450907 42.168404 3508.048323 46.963800 81.137292 -0.673004 0.623899 5.369208 14.092772 -13.523163 -9.130693 -0.000000 -0.000003 4.415006 -3.606935 -2.198361 -0.093687 0.000005 -0.000002 10.273301 64.274409 -29.629815 13.900412 0.000000 -0.000006 2.173891 4.468819 -8.280642 6.366384 2.359901 -0.565201 5.928100 5.075116 4.133324 0.160949 5.443698 -0.000010 0.000003 4.957151 381.736076 -80.400397 0.000002 0.000010 -10.615804 588.065299 -144.429609 193.864907 -0.000003 -0.000006 -13.110296 -1954.309460 190.533482 -605.592439 -2.636601 -1.718798 6.889703 179.392227 -182.016386 177.789114 -4.139101 -0.000003 0.000002 -185.988059 -159.199798 272.095120 -0.000010 -0.000001 -10.471793 -31.850490 -32.911321 -395.135377 -0.000000 0.000000 -12.281891 0.847514 7.431500 60.401747 2.273395 0.176702 -2.518000 -405.123300 -151.531503 -72.425953 0.000001 -0.000004 -20.456398 895.479109 164.656381 -207.312320 0.000002 -0.000002 -16.635298 -435.077641 32.679843 16.389602 -1.914804 0.018097 -2.699296 323.217747 158.966205 118.849308 -0.000001 0.000001 -20.148899 -953.535499 -151.791433 109.808767 -0.000002 -0.000009 -16.838299 962.066132 -2.943548 -45.838281
-12.887701 19.451010 42.157703 3508.057285 47.011803 81.189140 -0.673000 0.623903 5.369209 14.174955 -13.550255 -9.103017 0.000002 -0.000011 4.414997 -3.539087 -2.179408 0.012115 -0.000001 0.000001 10.273304 63.923775 -29.691952 13.868973 0.000001 -0.000006 2.173888 4.427691 -8.352994 6.493330 2.359898 -0.565203 5.928100 4.863734 4.254452 0.244245 5.443700 -0.000003 -0.000005 5.106502 381.739519 -80.722700 0.000000 0.000004 -10.615790 588.159064 -144.645061 193.739381 -0.000001 -0.000005 -13.110299 -1954.538735 190.592536 -605.623366 -2.636601 -1.718802 6.889705 179.191857 -181.969558 177.686183 -4.139100 0.000000 -0.000000 -185.868162 -159.226955 272.128014 -0.000006 -0.000004 -10.471805 -31.978471 -32.730198 -395.288783 -0.000004 0.000003 -12.281897 1.012507 7.333033 60.560460 2.273398 0.176705 -2.518003 -404.960987 -151.670962 -72.311547 -0.000002 -0.000002 -20.456396 895.065036 164.110349 -207.215194 0.000000 -0.000002 -16.635296 -434.444291 32.558036 16.174231 -1.914798 0.018105 -2.699300 323.167149 158.955564 118.886942 0.000003 -0.000001 -20.148899 -953.205792 -151.327718 110.303874 -0.000003 0.000000 -16.838299 961.680909 -2.908620 -45.914202
